<svg xmlns="http://www.w3.org/2000/svg" width="512" height="512" x="0" y="0" viewBox="0 0 32 32" style="enable-background:new 0 0 512 512" class=""><g><path d="M19.7 6.8c-.2.2-.5.3-.7.3s-.5-.1-.7-.3L17 5.6v3.6c0 .5-.4 1-1 1s-1-.5-1-1V5.6l-1.3 1.1c-.4.4-1 .4-1.4-.1-.4-.4-.3-1 .1-1.4l2.9-2.7c.4-.3 1-.3 1.4 0l3 2.7c.3.5.4 1.2 0 1.6z" fill="#5dc3b0" class=""></path><path d="M28.8 10.6c-.3-.2-3.3-2-11 .5-7.6 2.5-13.1-.5-13.1-.6-.3-.2-.7-.2-1 0s-.5.5-.5.9v13c0 .3.2.6.5.8.2.1 3.5 2.2 8.6 2.2 1.9 0 4-.3 6.3-1 6.8-2.2 9.2-.8 9.2-.8.3.2.7.2 1 .1.3-.2.5-.5.5-.9V11.4c-.1-.3-.2-.6-.5-.8zm-1.6 12.8c-1.6-.4-4.6-.5-9.4 1.1-6.3 2.1-11.2.1-12.6-.7V13c2.3.9 7.1 2.1 13.3 0 5.2-1.7 7.8-1.3 8.8-.9v11.3z" fill="#5dc3b0" class=""></path><path d="M16.2 22.5c-1.9 0-3.4-1.5-3.4-3.4s1.5-3.4 3.4-3.4 3.4 1.5 3.4 3.4-1.5 3.4-3.4 3.4zm0-4.8c-.8 0-1.4.6-1.4 1.4s.6 1.4 1.4 1.4 1.4-.6 1.4-1.4c.1-.8-.6-1.4-1.4-1.4z" fill="#5dc3b0" class=""></path><circle cx="8.9" cy="19.6" r="1.5" fill="#5dc3b0" class=""></circle><circle cx="23.4" cy="18.1" r="1.5" fill="#5dc3b0" class=""></circle></g></svg>